<svg width="7" height="7" viewBox="0 0 7 7" fill="none" xmlns="http://www.w3.org/2000/svg">
<g clip-path="url(#clip0_0_336)">
<path d="M-2.19445e-07 5.9063L-1.14264e-07 3.50005C-1.1044e-07 3.41255 0.0437497 3.3688 0.0875 3.32505L3.36875 0.918799C3.45625 0.875049 3.54375 0.875049 3.63125 0.918799L6.9125 3.5438C6.95625 3.58755 7 3.6313 7 3.7188L7 5.9063C7 5.9938 6.95625 6.0813 6.86875 6.12505C6.78125 6.12505 6.69375 6.12505 6.65 6.0813L3.5 3.5438L0.35 6.0813C0.2625 6.12505 0.175 6.12505 0.13125 6.12505C0.0437501 6.0813 -2.2327e-07 5.9938 -2.19445e-07 5.9063Z" fill="black"/>
</g>
<defs>
<clipPath id="clip0_0_336">
<rect width="7" height="7" fill="white" transform="translate(7) rotate(90)"/>
</clipPath>
</defs>
</svg>
