<svg width="22" height="22" viewBox="0 0 22 22" fill="none" xmlns="http://www.w3.org/2000/svg">
<path d="M20.9 18.6999H1.1C0.492807 18.6999 0 19.1927 0 19.7999C0 20.4071 0.492807 20.8999 1.1 20.8999H20.9C21.5072 20.8999 22 20.4071 22 19.7998C22 19.1927 21.5072 18.6999 20.9 18.6999ZM1.1 3.29985H20.9C21.5072 3.29985 22 2.80708 22 2.19985C22 1.59262 21.5072 1.09985 20.9 1.09985H1.1C0.492807 1.09989 0 1.59266 0 2.19989C0 2.80708 0.492807 3.29985 1.1 3.29985ZM20.9 9.89985H1.1C0.492807 9.89985 0 10.3927 0 10.9999C0 11.6071 0.492807 12.0999 1.1 12.0999H20.9C21.5072 12.0999 22 11.6071 22 10.9999C22 10.3927 21.5072 9.89985 20.9 9.89985Z" fill="black"/>
</svg>
