<svg width="56" height="56" viewBox="0 0 56 56" fill="none" xmlns="http://www.w3.org/2000/svg">
<g clip-path="url(#clip0_0_230)">
<path d="M54.4582 29.9158C55.4382 28.9358 56.0001 27.5792 56.0001 26.1936C56.0001 24.8081 55.4382 23.4514 54.4582 22.4714L46.9678 14.981L38.4648 23.4839L42.0777 27.0968L27.0968 42.0777L23.4839 38.4648L14.981 46.9678L22.4714 54.4582C23.4514 55.4382 24.8081 56.0001 26.1936 56.0001C27.5792 56.0001 28.9358 55.4382 29.9158 54.4582L31.9995 52.3745C34.6415 54.7103 37.9924 56.0001 41.5484 56.0001C49.5167 56.0001 56.0001 49.5167 56.0001 41.5484C56.0001 37.9915 54.7103 34.6397 52.3745 31.9995L54.4582 29.9158ZM41.0192 23.4839L46.9678 17.5353L48.4003 18.9678L42.4517 24.9164L41.0192 23.4839ZM17.5353 46.9678L23.4839 41.0192L24.9164 42.4517L18.9678 48.4003L17.5353 46.9678ZM30.6908 51.1281L28.6386 53.1811C27.9946 53.8251 27.1041 54.1936 26.1936 54.1936C25.2832 54.1936 24.3926 53.8251 23.7486 53.1811L20.245 49.6775L26.1936 43.7288L27.0968 44.6321L44.6321 27.0968L43.7288 26.1936L49.6775 20.245L53.1811 23.7486C53.8251 24.3926 54.1936 25.2832 54.1936 26.1936C54.1936 27.1041 53.8251 27.9946 53.1811 28.6386L51.129 30.6908L30.6908 51.1281ZM54.1936 41.5484C54.1936 48.5213 48.5213 54.1936 41.5484 54.1936C38.4739 54.1936 35.5664 53.1034 33.2677 51.1064L51.1064 33.2677C53.1034 35.5655 54.1936 38.473 54.1936 41.5484Z" fill="black"/>
<path d="M23.4839 37.9355V34.5719C24.6391 34.2377 25.7528 33.7761 26.8077 33.1936L29.1868 35.5735L35.5735 29.1868L33.1936 26.8077C33.777 25.7528 34.2377 24.64 34.5719 23.4839H37.9355V14.4516H34.5719C34.2377 13.2964 33.7761 12.1827 33.1936 11.1277L35.5735 8.74865L29.1868 2.36194L26.8077 4.74194C25.7528 4.15845 24.64 3.69781 23.4839 3.36361V0H14.4516V3.36361C13.2964 3.69781 12.1827 4.15936 11.1277 4.74194L8.74865 2.36194L2.36194 8.74865L4.74194 11.1277C4.15845 12.1827 3.69781 13.2955 3.36361 14.4516H0V23.4839H3.36361C3.69781 24.6391 4.15936 25.7528 4.74194 26.8077L2.36194 29.1868L8.74865 35.5735L11.1277 33.1936C12.1827 33.777 13.2955 34.2377 14.4516 34.5719V37.9355H23.4839ZM11.452 31.2932L10.845 30.9228L8.74955 33.0192L4.91716 29.1868L7.01355 27.0914L6.64323 26.4844C5.86194 25.2054 5.28748 23.8208 4.93613 22.3693L4.76903 21.6774H1.80645V16.2581H4.76903L4.93613 15.5662C5.28748 14.1156 5.86103 12.7301 6.64323 11.4511L7.01355 10.8441L4.91716 8.74865L8.74955 4.91626L10.845 7.01265L11.452 6.64232C12.731 5.86103 14.1156 5.28658 15.5671 4.93523L16.2581 4.76903V1.80645H21.6774V4.76903L22.3693 4.93613C23.8199 5.28748 25.2054 5.86103 26.4844 6.64323L27.0914 7.01355L29.1868 4.91716L33.0192 8.74955L30.9228 10.845L31.2932 11.452C32.0745 12.731 32.6489 14.1156 33.0003 15.5671L33.1665 16.2581H36.129V21.6774H33.1665L32.9994 22.3693C32.648 23.8199 32.0745 25.2054 31.2923 26.4844L30.9219 27.0914L33.0183 29.1868L29.1859 33.0192L27.0905 30.9228L26.4835 31.2932C25.2045 32.0745 23.8199 32.6489 22.3684 33.0003L21.6774 33.1665V36.129H16.2581V33.1665L15.5662 32.9994C14.1156 32.648 12.731 32.0745 11.452 31.2932Z" fill="black"/>
<path d="M28.9032 18.9677C28.9032 13.4896 24.4458 9.03223 18.9677 9.03223C13.4896 9.03223 9.03223 13.4896 9.03223 18.9677C9.03223 24.4458 13.4896 28.9032 18.9677 28.9032C24.4458 28.9032 28.9032 24.4458 28.9032 18.9677ZM10.8387 18.9677C10.8387 14.485 14.485 10.8387 18.9677 10.8387C23.4504 10.8387 27.0967 14.485 27.0967 18.9677C27.0967 23.4504 23.4504 27.0967 18.9677 27.0967C14.485 27.0967 10.8387 23.4504 10.8387 18.9677Z" fill="black"/>
<path d="M27.3611 39.4774L28.6384 38.2001L26.8323 36.3939L25.5549 37.6713L27.3611 39.4774Z" fill="black"/>
<path d="M36.3933 26.8326L38.1995 28.6388L39.4768 27.3615L37.6706 25.5553L36.3933 26.8326Z" fill="black"/>
</g>
<defs>
<clipPath id="clip0_0_230">
<rect width="56" height="56" fill="white"/>
</clipPath>
</defs>
</svg>
