<svg width="54" height="54" viewBox="0 0 54 54" fill="none" xmlns="http://www.w3.org/2000/svg">
<path d="M43.9082 24.7496C43.9082 24.7494 43.9081 24.7492 43.9081 24.7489C43.7523 24.1776 43.3804 23.716 42.8877 23.4825C36.943 20.7579 36.7938 20.3669 35.6429 20.3669C35.196 20.3669 34.7602 20.4661 34.3477 20.6616L28.3981 23.4824C27.9053 23.7159 27.5333 24.1774 27.3773 24.7496C27.1842 25.4603 26.8604 26.9271 26.8604 28.7666C26.8604 33.703 29.1067 38.2521 33.8451 41.6617C34.942 42.4513 36.3421 42.452 37.4405 41.6617C42.1892 38.2442 44.4253 33.6914 44.4253 28.7667C44.4253 26.927 44.1014 25.4603 43.9082 24.7496ZM36.5101 40.3688C35.9693 40.7579 35.3178 40.7591 34.7757 40.3689C30.4605 37.2631 28.4533 33.1713 28.4533 28.7666C28.4533 27.1119 28.7422 25.8012 28.9143 25.1681C28.953 25.026 29.0278 24.9466 29.0804 24.9218C35.3031 22.0207 35.0857 21.9597 35.6429 21.9597C36.1964 21.9597 35.9885 22.0234 42.2055 24.9218C42.2577 24.9466 42.3324 25.0258 42.3712 25.1674C42.5436 25.8014 42.8326 27.1121 42.8326 28.7668C42.8325 33.1632 40.8327 37.2571 36.5101 40.3688Z" fill="black"/>
<path d="M45.2638 0H17.5509C15.463 0 13.7645 1.69858 13.7645 3.78634V39.9523H9.19523C6.90888 39.9523 5.04883 41.8124 5.04883 44.0988V48.8721C5.04883 51.6995 7.34911 53.9997 10.1764 53.9997C22.3682 53.9997 34.7587 53.9996 43.269 54C46.4021 54 48.9512 51.4509 48.9512 48.3178V3.68741C48.9511 1.65418 47.2969 0 45.2638 0ZM11.1169 52.2953C8.73782 52.8843 6.64173 51.1137 6.64173 48.8721V44.0988C6.64173 42.6907 7.78722 41.5452 9.19523 41.5452H13.7651C13.7651 41.5454 13.7651 41.5455 13.7651 41.5456V41.5457C13.7651 41.5458 13.7651 41.5462 13.7651 41.5464C13.7651 41.547 13.7651 41.5476 13.7651 41.5485C13.7651 41.5554 13.7651 41.5613 13.7651 41.5653C13.7651 41.5667 13.7651 41.5677 13.7651 41.5688C13.7651 41.5695 13.7651 41.5705 13.7651 41.5713C13.7651 41.5718 13.7651 41.572 13.7651 41.5724C13.7651 41.5727 13.7651 41.5728 13.7651 41.5731C13.7652 41.7468 13.7658 42.8804 13.769 48.8719C13.769 50.5166 12.6402 51.9024 11.1169 52.2953ZM47.3583 48.3179C47.3582 50.5727 45.5238 52.4072 43.2689 52.4072H13.9468C15.6641 50.604 15.3356 48.5694 15.3618 47.5317V40.7487C15.3618 40.7204 15.3602 40.6925 15.3574 40.6649V3.78634C15.3574 2.57682 16.3415 1.59279 17.551 1.59279H45.2638C46.4187 1.59279 47.3583 2.53241 47.3583 3.6873V48.3179Z" fill="black"/>
<path d="M40.3325 27.4162C39.99 27.1401 39.4887 27.194 39.2126 27.5363C33.8777 34.1187 34.2276 33.7813 34.1234 33.7884C34.0207 33.7951 34.1257 33.8144 32.0014 31.8253C31.6823 31.5226 31.1783 31.5355 30.8754 31.8545C30.5725 32.1736 30.5856 32.6776 30.9046 32.9806L32.9387 34.9119C33.2565 35.2137 33.6805 35.3816 34.1166 35.3816C34.6216 35.3816 35.1167 35.1539 35.4462 34.7453L40.4525 28.5364C40.7286 28.1937 40.6748 27.6923 40.3325 27.4162Z" fill="black"/>
<path d="M38.9073 6.08533H18.6245C18.1847 6.08533 17.8281 6.44181 17.8281 6.88172C17.8281 7.32163 18.1847 7.67812 18.6245 7.67812H38.9072C39.347 7.67812 39.7035 7.32163 39.7035 6.88172C39.7035 6.44181 39.3471 6.08533 38.9073 6.08533Z" fill="black"/>
<path d="M43.6288 6.08533H42.093C41.6532 6.08533 41.2966 6.44181 41.2966 6.88172C41.2966 7.32163 41.6532 7.67812 42.093 7.67812H43.6288C44.0686 7.67812 44.4252 7.32163 44.4252 6.88172C44.4252 6.44181 44.0687 6.08533 43.6288 6.08533Z" fill="black"/>
<path d="M43.6287 46.2064H24.7266C24.2868 46.2064 23.9302 46.5629 23.9302 47.0028C23.9302 47.4427 24.2868 47.7992 24.7266 47.7992H43.6287C44.0685 47.7992 44.4251 47.4427 44.4251 47.0028C44.4252 46.5629 44.0686 46.2064 43.6287 46.2064Z" fill="black"/>
<path d="M21.541 46.2064H18.6248C18.185 46.2064 17.8284 46.5629 17.8284 47.0028C17.8284 47.4427 18.185 47.7992 18.6248 47.7992H21.541C21.9808 47.7992 22.3374 47.4427 22.3374 47.0028C22.3374 46.5629 21.9808 46.2064 21.541 46.2064Z" fill="black"/>
<path d="M43.6287 11.8193H18.6245C18.1847 11.8193 17.8281 12.1758 17.8281 12.6157C17.8281 13.0556 18.1847 13.4121 18.6245 13.4121H43.6287C44.0685 13.4121 44.4251 13.0556 44.4251 12.6157C44.4252 12.1758 44.0686 11.8193 43.6287 11.8193Z" fill="black"/>
<path d="M43.6286 17.5535H29.0803C28.6405 17.5535 28.2839 17.91 28.2839 18.3499C28.2839 18.7898 28.6405 19.1463 29.0803 19.1463H43.6286C44.0684 19.1463 44.425 18.7898 44.425 18.3499C44.425 17.91 44.0685 17.5535 43.6286 17.5535Z" fill="black"/>
<path d="M25.8948 17.5535H18.6248C18.185 17.5535 17.8284 17.91 17.8284 18.3499C17.8284 18.7898 18.185 19.1463 18.6248 19.1463H25.8948C26.3347 19.1463 26.6912 18.7898 26.6912 18.3499C26.6912 17.91 26.3347 17.5535 25.8948 17.5535Z" fill="black"/>
<path d="M24.5067 23.2875H18.6245C18.1847 23.2875 17.8281 23.644 17.8281 24.0839C17.8281 24.5238 18.1847 24.8803 18.6245 24.8803H24.5067C24.9465 24.8803 25.3031 24.5238 25.3031 24.0839C25.3031 23.644 24.9465 23.2875 24.5067 23.2875Z" fill="black"/>
<path d="M24.5067 29.0216H18.6245C18.1847 29.0216 17.8281 29.3781 17.8281 29.818C17.8281 30.2579 18.1847 30.6144 18.6245 30.6144H24.5067C24.9465 30.6144 25.3031 30.2579 25.3031 29.818C25.3031 29.3781 24.9465 29.0216 24.5067 29.0216Z" fill="black"/>
<path d="M25.8872 34.7557H18.6245C18.1847 34.7557 17.8281 35.1122 17.8281 35.5521C17.8281 35.992 18.1847 36.3485 18.6245 36.3485H25.8872C26.327 36.3485 26.6836 35.992 26.6836 35.5521C26.6836 35.1122 26.3271 34.7557 25.8872 34.7557Z" fill="black"/>
<path d="M28.462 40.4897H18.6245C18.1847 40.4897 17.8281 40.8462 17.8281 41.2861C17.8281 41.7261 18.1847 42.0825 18.6245 42.0825H28.462C28.9018 42.0825 29.2584 41.7261 29.2584 41.2861C29.2585 40.8462 28.9019 40.4897 28.462 40.4897Z" fill="black"/>
</svg>
