<svg width="49" height="49" viewBox="0 0 49 49" fill="none" xmlns="http://www.w3.org/2000/svg">
<g clip-path="url(#clip0_0_239)">
<path d="M45.0904 7.29787H34.6649V2.34574C34.6649 1.05235 33.6126 0 32.3191 0H16.6809C15.3874 0 14.3351 1.05235 14.3351 2.34574V7.29787H3.90957C1.75378 7.29787 0 9.05166 0 11.2074V22.9677C0 23.293 0.201526 23.5844 0.505951 23.6993C0.734062 23.7853 0.962694 23.8699 1.19153 23.9535V45.0904C1.19153 47.2462 2.94532 49 5.10111 49H44.1968C46.3526 49 48.1064 47.2462 48.1064 45.0904V23.8417C48.2355 23.794 48.3654 23.7479 48.494 23.6993C48.7985 23.5844 49 23.2931 49 22.9677V11.2074C49 9.05166 47.2462 7.29787 45.0904 7.29787ZM15.8989 2.34574C15.8989 1.91454 16.2497 1.56383 16.6809 1.56383H32.3191C32.7503 1.56383 33.1011 1.91454 33.1011 2.34574V7.29787H31.5372V3.90957C31.5372 3.47764 31.1871 3.12766 30.7553 3.12766H18.2447C17.8129 3.12766 17.4628 3.47764 17.4628 3.90957V7.29787H15.8989V2.34574ZM19.0266 7.29787V4.69149H29.9734V7.29787H19.0266ZM2.75536 45.0904V40.7C6.30004 41.0661 9.12557 43.8915 9.49161 47.4362H5.10111C3.80761 47.4362 2.75536 46.3838 2.75536 45.0904ZM44.1968 47.4362H39.8064C40.1723 43.8915 42.9979 41.066 46.5426 40.7V45.0904C46.5426 46.3838 45.4903 47.4362 44.1968 47.4362ZM46.5426 39.1296C42.1351 39.5056 38.612 43.0286 38.2361 47.4362H11.0619C10.686 43.0287 7.16286 39.5057 2.75536 39.1296V24.502C8.55832 26.4604 14.5937 27.622 20.7394 27.9607V32.4955C20.7394 32.9275 21.0895 33.2775 21.5213 33.2775H27.7766C28.2085 33.2775 28.5586 32.9275 28.5586 32.4955V27.9408C31.3051 27.777 34.0631 27.446 36.7682 26.9517C37.1931 26.874 37.4745 26.4667 37.3968 26.0418C37.3191 25.617 36.9116 25.336 36.487 25.4133C33.8743 25.8909 31.2112 26.2124 28.5585 26.3745V23.1127C28.5585 22.6807 28.2084 22.3308 27.7765 22.3308H21.5212C21.0894 22.3308 20.7393 22.6807 20.7393 23.1127V26.3941C14.4021 26.0368 8.18634 24.7848 2.23159 22.666C2.22168 22.6626 2.21199 22.6587 2.20187 22.6555C1.98877 22.5796 1.77599 22.5028 1.56362 22.4246V11.2074C1.56383 9.91405 2.61608 8.8617 3.90957 8.8617H45.0904C46.3839 8.8617 47.4362 9.91405 47.4362 11.2074V22.4245C44.8598 23.3719 42.1973 24.1658 39.5141 24.7866C39.0933 24.884 38.8312 25.3039 38.9285 25.7246C39.0258 26.1453 39.4458 26.4075 39.8666 26.3101C42.1186 25.789 44.3558 25.1477 46.5426 24.3995V39.1296ZM22.3032 30.1497H26.9947V31.7135H22.3032V30.1497ZM26.9947 28.5859H22.3032V23.8944H26.9947V28.5859Z" fill="black"/>
<path d="M8.65301 13.6029C9.08485 13.6029 9.43492 13.2528 9.43492 12.821C9.43492 12.3891 9.08485 12.0391 8.65301 12.0391C8.22117 12.0391 7.87109 12.3891 7.87109 12.821C7.87109 13.2528 8.22117 13.6029 8.65301 13.6029Z" fill="black"/>
<path d="M5.52532 16.7306C5.95716 16.7306 6.30724 16.3805 6.30724 15.9487C6.30724 15.5168 5.95716 15.1667 5.52532 15.1667C5.09348 15.1667 4.74341 15.5168 4.74341 15.9487C4.74341 16.3805 5.09348 16.7306 5.52532 16.7306Z" fill="black"/>
</g>
<defs>
<clipPath id="clip0_0_239">
<rect width="49" height="49" fill="white"/>
</clipPath>
</defs>
</svg>
