<svg width="58" height="58" viewBox="0 0 58 58" fill="none" xmlns="http://www.w3.org/2000/svg">
<g clip-path="url(#clip0_0_207)">
<path d="M42.3561 24.2705H50.5484C51.2188 24.2705 51.6302 23.4941 51.2515 22.9393L47.0211 16.7413C46.8625 16.509 46.5993 16.37 46.318 16.37H42.3562C41.8861 16.37 41.5049 16.7511 41.5049 17.2213V23.4193C41.5048 23.8894 41.8858 24.2705 42.3561 24.2705ZM43.2073 18.0724H45.8681L48.9365 22.5678H43.2073V18.0724Z" fill="black"/>
<path d="M45.3593 28.2182C45.8294 28.2182 46.2106 27.8372 46.2106 27.3669C46.2106 26.8967 45.8294 26.5156 45.3593 26.5156H42.3559C41.8858 26.5156 41.5046 26.8967 41.5046 27.3669C41.5046 27.8372 41.8858 28.2182 42.3559 28.2182H45.3593Z" fill="black"/>
<path d="M7.08765 18.0514V32.9038C7.08765 33.374 7.46872 33.7551 7.93896 33.7551C8.40919 33.7551 8.79026 33.374 8.79026 32.9038V18.0514C8.79026 17.5812 8.40907 17.2001 7.93896 17.2001C7.46884 17.2001 7.08765 17.5813 7.08765 18.0514Z" fill="black"/>
<path d="M12.0547 18.0514V32.9038C12.0547 33.374 12.4359 33.7551 12.906 33.7551C13.3761 33.7551 13.7573 33.374 13.7573 32.9038V18.0514C13.7573 17.5812 13.3762 17.2001 12.906 17.2001C12.4358 17.2001 12.0547 17.5813 12.0547 18.0514Z" fill="black"/>
<path d="M18.7246 32.9038V18.0514C18.7246 17.5812 18.3434 17.2001 17.8733 17.2001C17.4032 17.2001 17.022 17.5812 17.022 18.0514V32.9038C17.022 33.374 17.4032 33.7551 17.8733 33.7551C18.3434 33.755 18.7246 33.374 18.7246 32.9038Z" fill="black"/>
<path d="M23.6916 32.9038V18.0514C23.6916 17.5812 23.3106 17.2001 22.8403 17.2001C22.3702 17.2001 21.989 17.5812 21.989 18.0514V32.9038C21.989 33.374 22.3702 33.7551 22.8403 33.7551C23.3104 33.755 23.6916 33.374 23.6916 32.9038Z" fill="black"/>
<path d="M28.6587 32.9038V18.0514C28.6587 17.5812 28.2775 17.2001 27.8074 17.2001C27.3372 17.2001 26.9561 17.5812 26.9561 18.0514V32.9038C26.9561 33.374 27.3372 33.7551 27.8074 33.7551C28.2775 33.755 28.6587 33.374 28.6587 32.9038Z" fill="black"/>
<path d="M33.6257 32.9038V18.0514C33.6257 17.5812 33.2446 17.2001 32.7744 17.2001C32.3042 17.2001 31.9231 17.5812 31.9231 18.0514V32.9038C31.9231 33.374 32.3043 33.7551 32.7744 33.7551C33.2445 33.7551 33.6257 33.374 33.6257 32.9038Z" fill="black"/>
<path d="M10.2499 39.9742C8.70966 39.9742 7.45654 41.2274 7.45654 42.7676C7.45654 44.3079 8.70966 45.561 10.2499 45.561C11.7902 45.561 13.0433 44.3078 13.0433 42.7676C13.0433 41.2272 11.7902 39.9742 10.2499 39.9742ZM10.2499 43.8584C9.64842 43.8584 9.15905 43.3691 9.15905 42.7675C9.15905 42.1661 9.64842 41.6767 10.2499 41.6767C10.8515 41.6767 11.3408 42.1661 11.3408 42.7675C11.3408 43.3691 10.8515 43.8584 10.2499 43.8584Z" fill="black"/>
<path d="M47.1381 39.9742C45.5978 39.9742 44.3447 41.2274 44.3447 42.7676C44.3447 44.3079 45.5978 45.561 47.1381 45.561C48.6784 45.561 49.9316 44.3078 49.9316 42.7676C49.9315 41.2272 48.6784 39.9742 47.1381 39.9742ZM47.1381 43.8584C46.5366 43.8584 46.0472 43.3691 46.0472 42.7675C46.0472 42.1661 46.5366 41.6767 47.1381 41.6767C47.7397 41.6767 48.229 42.1661 48.229 42.7675C48.229 43.3691 47.7397 43.8584 47.1381 43.8584Z" fill="black"/>
<path d="M57.1487 37.3752H56.6379V28.7453C56.6379 25.9973 55.801 23.3575 54.2177 21.1116L49.6695 14.6601C48.741 13.3431 47.2246 12.5567 45.6131 12.5567H39.341V9.64085C39.341 9.17062 38.9598 8.78954 38.4897 8.78954H34.1073C33.6372 8.78954 33.256 9.17062 33.256 9.64085C33.256 10.1111 33.6371 10.4922 34.1073 10.4922H37.6384V12.5568H14.6085C14.1384 12.5568 13.7572 12.9379 13.7572 13.4081C13.7572 13.8784 14.1383 14.2594 14.6085 14.2594H37.6384V37.3754H13.7698C12.7572 36.7121 11.5482 36.3248 10.2499 36.3248C8.9516 36.3248 7.74266 36.7121 6.73004 37.3754H3.07502V14.2593H11.2035C11.6736 14.2593 12.0548 13.8782 12.0548 13.408C12.0548 12.9378 11.6737 12.5567 11.2035 12.5567H3.07502V10.492H30.7022C31.1723 10.492 31.5535 10.111 31.5535 9.64074C31.5535 9.17051 31.1723 8.78943 30.7022 8.78943H2.22382C1.75371 8.78943 1.37252 9.17051 1.37252 9.64074V37.3752H0.851309C0.381191 37.3752 0 37.7562 0 38.2265V43.7277C0 44.198 0.381078 44.5791 0.851309 44.5791H4.06804C4.85274 47.2523 7.32624 49.2106 10.25 49.2106C13.1738 49.2106 15.6473 47.2523 16.432 44.5791H27.2972C27.7673 44.5791 28.1485 44.198 28.1485 43.7277C28.1485 43.2575 27.7673 42.8764 27.2972 42.8764H16.6903C16.6909 42.8401 16.693 42.8041 16.693 42.7676C16.693 41.3959 16.2607 40.1237 15.5271 39.0778H41.8613C41.1277 40.1238 40.6954 41.3959 40.6954 42.7676C40.6954 42.8041 40.6975 42.8401 40.6981 42.8764H30.2215C29.7514 42.8764 29.3702 43.2575 29.3702 43.7277C29.3702 44.198 29.7514 44.5791 30.2215 44.5791H40.9563C41.741 47.2523 44.2145 49.2106 47.1383 49.2106C50.062 49.2106 52.5355 47.2523 53.3202 44.5791H57.1488C57.6189 44.5791 58.0001 44.198 58.0001 43.7277V38.2265C58 37.7564 57.6188 37.3752 57.1487 37.3752ZM54.9354 33.9086H52.5496V31.6347H54.9354V33.9086ZM39.3409 14.2593H45.613C46.6716 14.2593 47.6678 14.7759 48.2779 15.6411L52.826 22.0926C54.2059 24.0501 54.9353 26.3505 54.9353 28.7454V29.9322H51.6983C51.2282 29.9322 50.847 30.3133 50.847 30.7836V34.7601C50.847 35.2303 51.2282 35.6114 51.6983 35.6114H54.9353V37.3754H50.6579C49.6453 36.7121 48.4363 36.3248 47.138 36.3248C45.8397 36.3248 44.6308 36.7121 43.6182 37.3754H39.3408V14.2593H39.3409ZM1.7025 42.8764V39.0778H4.97293C4.23932 40.1238 3.80704 41.3959 3.80704 42.7676C3.80704 42.8041 3.8092 42.8401 3.80976 42.8764H1.7025ZM10.2499 47.5081C7.63606 47.5081 5.50955 45.3815 5.50955 42.7677C5.50955 40.1538 7.63606 38.0273 10.2499 38.0273C12.8638 38.0273 14.9903 40.1538 14.9903 42.7677C14.9904 45.3815 12.8639 47.5081 10.2499 47.5081ZM47.1381 47.5081C44.5243 47.5081 42.3978 45.3815 42.3978 42.7677C42.3978 40.1538 44.5243 38.0273 47.1381 38.0273C49.752 38.0273 51.8786 40.1538 51.8786 42.7677C51.8786 45.3815 49.752 47.5081 47.1381 47.5081ZM56.2975 42.8764H53.5784C53.579 42.8401 53.5811 42.8041 53.5811 42.7676C53.5811 41.3959 53.1488 40.1237 52.4151 39.0778H56.2974V42.8764H56.2975Z" fill="black"/>
</g>
<defs>
<clipPath id="clip0_0_207">
<rect width="58" height="58" fill="white"/>
</clipPath>
</defs>
</svg>
