<svg width="59" height="59" viewBox="0 0 59 59" fill="none" xmlns="http://www.w3.org/2000/svg">
<g clip-path="url(#clip0_0_220)">
<path d="M56.0625 48.4089L43.8955 36.2417L48.8167 34.4507C49.2363 34.298 49.4856 33.8661 49.408 33.4263L48.0897 25.9503L51.8854 19.3758C52.1086 18.9892 52.022 18.4981 51.68 18.2112L45.8646 13.3316L44.5463 5.85542C44.4688 5.4158 44.0869 5.09534 43.6404 5.09534H36.0487L30.2337 0.215286C29.8916 -0.0717621 29.3929 -0.0717621 29.0508 0.215286L23.2355 5.09499H15.644C15.1975 5.09499 14.8156 5.41546 14.738 5.85508L13.4198 13.3311L7.60424 18.2108C7.26222 18.4978 7.17568 18.9889 7.39889 19.3755L11.1947 25.95L9.87642 33.426C9.79876 33.8657 10.0481 34.2975 10.4677 34.4503L15.1807 36.1656L2.9376 48.4089C2.68443 48.6621 2.60112 49.0396 2.72442 49.3759C2.8476 49.7123 3.15482 49.9464 3.51181 49.9762L11.0628 50.6056L11.6922 58.1564C11.7219 58.5134 11.9561 58.8206 12.2924 58.9438C12.3957 58.9817 12.5026 59 12.6087 59C12.8485 59 13.0839 58.9062 13.2595 58.7306L29.5001 42.49L45.7407 58.7306C45.9165 58.9062 46.1517 59 46.3915 59C46.4976 59 46.6047 58.9817 46.7078 58.9438C47.0442 58.8206 47.2783 58.5134 47.3079 58.1564L47.9375 50.6057L55.4883 49.9763C55.8453 49.9465 56.1525 49.7124 56.2757 49.3759C56.399 49.0395 56.3157 48.6623 56.0625 48.4089ZM13.361 56.027L12.8317 49.677C12.7944 49.2293 12.4392 48.8739 11.9913 48.8366L5.64134 48.3073L17.0885 36.8602L17.6014 37.0469L21.3971 43.6213C21.5653 43.9128 21.873 44.0815 22.194 44.0815C22.2989 44.0815 22.4051 44.0635 22.5085 44.0259L26.9942 42.3933L13.361 56.027ZM30.3924 39.7447L29.9567 39.5863C29.7535 39.5122 29.5306 39.5122 29.3275 39.5863L28.6822 39.8211L22.6046 42.0331L19.0274 35.8372C18.9192 35.6499 18.7486 35.5067 18.5454 35.4326L17.1672 34.9308L11.8225 32.9857L13.065 25.9402C13.1026 25.727 13.0639 25.5076 12.9558 25.3202L9.3785 19.1243L14.8593 14.5255C15.025 14.3866 15.1364 14.1936 15.1737 13.9807L16.4161 6.93505H23.5704C23.7868 6.93505 23.9962 6.85888 24.1618 6.71979L29.6423 2.12103L35.1228 6.71979C35.2886 6.85888 35.4979 6.93505 35.7142 6.93505H42.8687L44.111 13.9807C44.1486 14.1936 44.2599 14.3867 44.4255 14.5255L49.9061 19.1243L46.3289 25.3202C46.2207 25.5075 46.1821 25.727 46.2197 25.94L47.4621 32.9856L41.9092 35.0067L40.7391 35.4326C40.536 35.5067 40.3652 35.6498 40.2571 35.8372L36.68 42.0331L30.394 39.7452C30.3934 39.745 30.3928 39.745 30.3924 39.7447ZM47.0089 48.8367C46.5612 48.8741 46.2058 49.2292 46.1685 49.6771L45.6393 56.0271L31.8432 42.2306L36.7759 44.026C36.8792 44.0637 36.9855 44.0816 37.0904 44.0816C37.4114 44.0816 37.7191 43.9129 37.8873 43.6215L41.6829 37.047L41.9876 36.9361L53.3589 48.3075L47.0089 48.8367Z" fill="black"/>
<path d="M29.5003 7.896C21.4176 7.896 14.842 14.4716 14.842 22.5542C14.842 30.6369 21.4178 37.2124 29.5003 37.2124C37.5829 37.2124 44.1584 30.6368 44.1584 22.5542C44.1584 14.4717 37.5828 7.896 29.5003 7.896ZM29.5003 35.3724C22.4323 35.3724 16.682 29.6221 16.682 22.5541C16.682 15.4861 22.4323 9.73594 29.5003 9.73594C36.5682 9.73594 42.3186 15.4862 42.3186 22.5542C42.3186 29.6222 36.5682 35.3724 29.5003 35.3724Z" fill="black"/>
<path d="M40.088 19.6246C39.9648 19.2455 39.6116 18.9889 39.213 18.9889H32.4232L30.3251 12.5314C30.2019 12.1523 29.8487 11.8956 29.4501 11.8956C29.0517 11.8956 28.6984 12.1523 28.5752 12.5314L26.477 18.9889H19.6872C19.2887 18.9889 18.9354 19.2455 18.8122 19.6246C18.689 20.0036 18.8239 20.4189 19.1465 20.6532L24.6396 24.6441L22.5414 31.1017C22.4182 31.4807 22.5532 31.896 22.8757 32.1303C23.0369 32.2475 23.2266 32.306 23.4164 32.306C23.6062 32.306 23.7958 32.2474 23.957 32.1303L29.4501 28.1395L34.9431 32.1303C35.2656 32.3646 35.7022 32.3646 36.0245 32.1303C36.3469 31.8961 36.4817 31.4808 36.3588 31.1017L34.2606 24.6441L39.7537 20.6532C40.0762 20.4189 40.2111 20.0036 40.088 19.6246ZM32.6384 23.5486C32.316 23.7827 32.1811 24.198 32.3042 24.5771L33.7339 28.9775L29.9907 26.2581C29.6683 26.0238 29.2317 26.0238 28.9094 26.2581L25.1661 28.9776L26.5958 24.5771C26.719 24.1981 26.584 23.7828 26.2615 23.5487L22.5185 20.829H27.1455C27.5439 20.829 27.8973 20.5724 28.0204 20.1933L29.4501 15.793L30.8797 20.1933C31.0029 20.5724 31.3561 20.829 31.7547 20.829H36.3817L32.6384 23.5486Z" fill="black"/>
</g>
<defs>
<clipPath id="clip0_0_220">
<rect width="59" height="59" fill="white"/>
</clipPath>
</defs>
</svg>
