<svg width="24" height="24" viewBox="0 0 24 24" fill="none" xmlns="http://www.w3.org/2000/svg">
<g clip-path="url(#clip0_0_1076)">
<path d="M23.6227 18.1306C22.8454 16.6384 21.6914 15.4447 20.1943 14.5835C19.6167 14.2495 19.0714 14.0872 18.5272 14.0872C18.3155 14.0872 18.1031 14.1127 17.8946 14.1627C17.2035 14.3303 16.5397 14.6536 15.8653 15.1514C15.6524 15.3085 15.3919 15.3881 15.0911 15.3881C14.7249 15.3881 14.3282 15.2624 14.0566 15.0601C12.0852 13.5904 10.4122 11.9176 8.94286 9.94637C8.65395 9.5584 8.42497 8.71506 8.85114 8.13743C9.3491 7.46295 9.67254 6.79906 9.8402 6.10684C10.0198 5.36089 9.88213 4.60915 9.42023 3.81C8.55796 2.31111 7.36417 1.15719 5.87234 0.379974C5.38891 0.127991 4.89421 0 4.40204 0C3.57897 0 2.80862 0.357508 2.17467 1.03319C1.59191 1.65335 1.07668 2.31004 0.482184 3.10518C-0.0619786 3.83373 -0.0171151 4.67414 0.0225488 5.41562L0.0235488 5.43142C0.0903441 6.37189 0.441653 7.48488 1.09747 8.83285C2.20693 11.1145 3.78275 13.281 5.91454 15.456C6.35244 15.9032 8.09886 17.6496 8.54629 18.0875C10.7217 20.22 12.8883 21.7957 15.1695 22.905C16.5178 23.5609 17.6305 23.9121 18.5712 23.979L18.587 23.98C18.7805 23.9903 18.9874 24 19.1887 24H19.1888C19.6854 24 20.3285 23.9455 20.8974 23.5202C21.6927 22.9258 22.3495 22.4105 22.9688 21.8284C24.0547 20.8098 24.299 19.4272 23.6227 18.1306Z" fill="#009380"/>
</g>
<defs>
<clipPath id="clip0_0_1076">
<rect width="24" height="24" fill="white"/>
</clipPath>
</defs>
</svg>
