<svg width="38" height="38" viewBox="0 0 38 38" fill="none" xmlns="http://www.w3.org/2000/svg">
<g clip-path="url(#clip0_0_1036)">
<path d="M35.7884 5.0568C26.5212 5.0568 22.3774 0.263574 22.3374 0.216654C22.0967 -0.072218 21.605 -0.072218 21.3643 0.216654C21.3238 0.264762 17.223 5.0568 7.91334 5.0568C7.56366 5.0568 7.27984 5.34063 7.27984 5.6903V17.7276C7.27984 17.3773 6.99602 17.0941 6.64634 17.0941H2.21162C1.86195 17.0941 1.57812 17.3773 1.57812 17.7276V30.3981C1.57812 30.7478 1.86195 31.0316 2.21162 31.0316H6.64627C6.99594 31.0316 7.27977 30.7478 7.27977 30.3981V29.7642H10.8213C12.0406 31.6214 13.5211 33.2418 15.2279 34.5828C17.2343 36.1597 19.4016 37.3007 21.6703 37.9734C21.7298 37.9912 21.79 38 21.8508 38C21.9116 38 21.9719 37.9911 22.0314 37.9734C24.3001 37.3007 26.4673 36.1597 28.4737 34.5828C33.4506 30.6721 36.4218 24.3907 36.4218 17.7811V5.6903C36.4219 5.34063 36.1381 5.0568 35.7884 5.0568ZM7.28905 18.4096H7.27977V17.7811C7.27984 17.9909 7.28311 18.2004 7.28905 18.4096ZM6.01277 29.7645H2.84512V18.3611H6.01277V19.0431V29.1307V29.7645ZM7.27984 19.6741H7.30582C7.40404 19.6824 8.27385 19.7412 9.14685 18.9475C10.2948 17.9034 10.877 15.9243 10.877 13.0664C10.877 12.2942 11.0196 11.392 11.4212 11.392H11.5068C12.1022 11.392 12.8986 12.4234 13.0291 13.3629C13.1945 14.5552 13.2357 16.3943 12.9943 17.6031C12.9855 17.6443 12.9816 17.6854 12.9816 17.7273V18.9944C12.9816 19.3441 13.2655 19.6279 13.6151 19.6279H18.6833C19.0324 19.6279 19.3168 19.9123 19.3168 20.2614C19.3168 20.6105 19.0324 20.8949 18.6833 20.8949H13.6151C13.2654 20.8949 12.9816 21.1787 12.9816 21.5284C12.9816 21.878 13.2654 22.1619 13.6151 22.1619H18.6833C19.0324 22.1619 19.3168 22.4463 19.3168 22.7954C19.3168 23.1445 19.0324 23.4289 18.6833 23.4289H13.6151C13.2654 23.4289 12.9816 23.7127 12.9816 24.0624C12.9816 24.412 13.2654 24.6959 13.6151 24.6959H18.6833C19.0324 24.6959 19.3168 24.9803 19.3168 25.3294C19.3168 25.6784 19.0324 25.9629 18.6833 25.9629H13.6151C13.2654 25.9629 12.9816 26.2467 12.9816 26.5964C12.9816 26.946 13.2654 27.2299 13.6151 27.2299H18.6833C19.0324 27.2299 19.3168 27.5143 19.3168 27.8634C19.3168 28.2124 19.0324 28.4969 18.6833 28.4969H7.27984V19.6741ZM20.0985 26.5966C20.4001 26.2602 20.5838 25.8161 20.5838 25.3295C20.5838 24.8429 20.4 24.3988 20.0985 24.0624C20.4001 23.7261 20.5838 23.2819 20.5838 22.7954C20.5838 22.3088 20.4 21.8648 20.0985 21.5283C20.4001 21.1919 20.5838 20.7478 20.5838 20.2612C20.5838 19.2134 19.731 18.3607 18.6832 18.3607H14.2486V17.7886C14.5166 16.3828 14.4564 14.4277 14.284 13.1885C14.1255 12.0444 13.3497 10.7976 12.348 10.3234V9.80786C16.7186 9.161 19.8711 7.62539 21.8508 6.3431C23.8306 7.62532 26.9831 9.161 31.3537 9.80786V17.7808C31.3537 22.8483 29.1066 27.6397 25.3422 30.5982C24.2284 31.4731 23.0552 32.1681 21.8508 32.6673C20.6465 32.1681 19.4732 31.4731 18.3601 30.5982C18.0279 30.3372 17.7048 30.0582 17.3917 29.764H18.6832C19.731 29.764 20.5838 28.9113 20.5838 27.8634C20.5838 27.3771 20.4001 26.933 20.0985 26.5966ZM35.1548 17.7811C35.1548 24.0048 32.3648 29.9138 27.6906 33.5869C25.8642 35.0225 23.9003 36.0709 21.8508 36.7045C19.8014 36.071 17.8374 35.0225 16.011 33.5869C14.6286 32.5005 13.4038 31.2176 12.3579 29.7642H15.6166C16.2255 30.4343 16.8832 31.0493 17.5771 31.5949C18.858 32.6016 20.2182 33.391 21.6196 33.9402C21.6937 33.9694 21.7723 33.9839 21.8508 33.9839C21.9294 33.9839 22.0079 33.9694 22.0821 33.9402C23.4828 33.391 24.843 32.6016 26.1253 31.5949C30.1925 28.3982 32.6208 23.2337 32.6208 17.781V9.25625C32.6208 8.93694 32.3839 8.66833 32.0671 8.6278C27.3784 8.02979 24.117 6.35728 22.2069 5.05918C21.9921 4.91285 21.7096 4.91285 21.4949 5.05918C19.5848 6.35728 16.3234 8.02979 11.6347 8.6278C11.3179 8.66833 11.081 8.93694 11.081 9.25625V10.159C10.4214 10.2949 9.60997 10.902 9.60997 13.0664C9.60997 15.7443 9.07291 17.0757 8.54691 17.7374V6.3169C16.3025 6.14458 20.4983 2.83439 21.8509 1.53629C23.2035 2.83439 27.3993 6.14451 35.1549 6.3169L35.1548 17.7811Z" fill="#009380"/>
</g>
<defs>
<clipPath id="clip0_0_1036">
<rect width="38" height="38" fill="white"/>
</clipPath>
</defs>
</svg>
