<svg width="42" height="42" viewBox="0 0 42 42" fill="none" xmlns="http://www.w3.org/2000/svg">
<g clip-path="url(#clip0_0_1040)">
<path d="M21.728 38.8894C21.4594 38.4869 20.916 38.3785 20.5144 38.647L18.3496 40.0899L1.74997 30.1298V9.62503C1.74997 9.14203 1.35795 8.75 0.874945 8.75C0.391945 8.75 0 9.14203 0 9.62503V30.625C0 30.9331 0.161027 31.2174 0.424348 31.3749L17.9243 41.8749C18.0634 41.9589 18.2192 42 18.3749 42C18.5446 42 18.7135 41.9501 18.8605 41.853L21.4855 40.103C21.8872 39.8344 21.9958 39.292 21.728 38.8894Z" fill="#009380"/>
<path d="M34.125 0H2.625C1.17772 0 0 1.17772 0 2.625V6.12503C0 6.60803 0.392027 7.00005 0.875027 7.00005H32.375C32.858 7.00005 33.2501 6.60803 33.2501 6.12503C33.2501 5.64203 32.858 5.25 32.375 5.25H1.74997V2.625C1.74997 2.1429 2.14282 1.74997 2.625 1.74997H34.125C34.6071 1.74997 35 2.14282 35 2.625V19.25C35 19.733 35.3921 20.1251 35.8751 20.1251C36.3581 20.1251 36.7501 19.733 36.7501 19.25V2.625C36.75 1.17772 35.5723 0 34.125 0Z" fill="#009380"/>
<path d="M18.8248 35.1252L6.12505 27.5048V9.62503C6.12505 9.14203 5.73303 8.75 5.25003 8.75C4.76703 8.75 4.375 9.14203 4.375 9.62503V28C4.375 28.3081 4.53603 28.5924 4.79935 28.7499L17.9243 36.6249C18.0652 36.7098 18.221 36.75 18.3741 36.75C18.6717 36.75 18.9612 36.5986 19.1249 36.3256C19.3734 35.911 19.2396 35.3737 18.8248 35.1252Z" fill="#009380"/>
<path d="M22.75 14.875V13.125C22.75 11.1992 21.1803 10.5 20.125 10.5H16.625C14.6992 10.5 14 12.0697 14 13.125V14.875C12.5527 14.875 11.375 16.0527 11.375 17.5V24.4999C11.375 25.9472 12.5527 27.1249 14 27.1249H19.25C19.733 27.1249 20.125 26.7338 20.125 26.2499C20.125 25.766 19.733 25.3749 19.25 25.3749H14C13.5179 25.3749 13.125 24.9829 13.125 24.4999V17.4999C13.125 17.0178 13.5178 16.6249 14 16.6249H18.3751C18.8581 16.6249 19.2501 16.2328 19.2501 15.7498C19.2501 15.2668 18.8581 14.8748 18.3751 14.8748H15.7501V13.1353C15.7606 12.7311 15.9207 12.2498 16.6251 12.2498H20.1146C20.5188 12.2605 21.0001 12.4206 21.0001 13.125V15.75C21.0001 16.233 21.3921 16.625 21.8751 16.625H22.7501C23.2322 16.625 23.6251 17.0179 23.6251 17.5001V20.1251C23.6251 20.6081 24.0172 21.0001 24.5002 21.0001C24.9832 21.0001 25.3752 20.6081 25.3752 20.1251V17.5001C25.375 16.0528 24.1973 14.875 22.75 14.875Z" fill="#009380"/>
<path d="M20.1251 18.375H16.625C16.142 18.375 15.75 18.767 15.75 19.25C15.75 19.733 16.142 20.1251 16.625 20.1251H17.5001V22.7501C17.5001 23.234 17.8921 23.6251 18.3751 23.6251C18.8581 23.6251 19.2501 23.234 19.2501 22.7501V20.1251H20.1251C20.6081 20.1251 21.0002 19.733 21.0002 19.25C21.0002 18.767 20.6081 18.375 20.1251 18.375Z" fill="#009380"/>
<path d="M31.5 21C25.7102 21 21 25.7102 21 31.5C21 37.2898 25.7102 42 31.5 42C37.2898 42 42 37.2898 42 31.5C42 25.7102 37.2898 21 31.5 21ZM31.5 40.25C26.6753 40.25 22.75 36.3247 22.75 31.5C22.75 26.6753 26.6753 22.75 31.5 22.75C36.3247 22.75 40.25 26.6753 40.25 31.5C40.25 36.3247 36.3247 40.25 31.5 40.25Z" fill="#009380"/>
<path d="M36.4937 27.3814C36.1515 27.0392 35.5985 27.0392 35.2564 27.3814L28.875 33.7627L27.7436 32.6314C27.4015 32.2892 26.8485 32.2892 26.5064 32.6314C26.1642 32.9735 26.1642 33.5265 26.5064 33.8686L28.2563 35.6186C28.427 35.7892 28.651 35.875 28.8749 35.875C29.099 35.875 29.3229 35.7892 29.4935 35.6186L36.4935 28.6186C36.8357 28.2765 36.8357 27.7235 36.4937 27.3814Z" fill="#009380"/>
<path d="M31.5 8.75C31.017 8.75 30.625 9.14203 30.625 9.62503V18.375C30.625 18.858 31.017 19.25 31.5 19.25C31.983 19.25 32.3751 18.858 32.3751 18.375V9.62495C32.3751 9.14195 31.983 8.75 31.5 8.75Z" fill="#009380"/>
</g>
<defs>
<clipPath id="clip0_0_1040">
<rect width="42" height="42" fill="white"/>
</clipPath>
</defs>
</svg>
