<svg width="21" height="21" viewBox="0 0 21 21" fill="none" xmlns="http://www.w3.org/2000/svg">
<g clip-path="url(#clip0_0_133)">
<path d="M21 0V21H0.000143051V0H21ZM1.08909 9.95553H9.9556V1.08895H1.08909V9.95553ZM11.0445 1.08895V9.95553H19.9111V1.08895H11.0445ZM19.9111 11.0445H11.0445V19.9111H19.9111V11.0445ZM9.9556 19.9111V11.0445H1.08909V19.9111H9.9556Z" fill="#009380"/>
<path d="M15.8181 8.59504H14.7291V6.57548H12.7096V5.48653H14.7291V3.46704H15.8181V5.48653H17.8376V6.57548H15.8181V8.59504Z" fill="#009380"/>
<path d="M13.0756 14.0859L13.8456 13.3159L15.2736 14.7439L16.7016 13.3159L17.4717 14.0859L16.0436 15.5139L17.4717 16.9419L16.7016 17.712L15.2736 16.284L13.8456 17.712L13.0756 16.9419L14.5036 15.5139L13.0756 14.0859Z" fill="#009380"/>
<path d="M2.95469 5.48657H8.08276V6.57552H2.95469V5.48657Z" fill="#009380"/>
<path d="M2.95469 14.9695H8.08276V16.0584H2.95469V14.9695Z" fill="#009380"/>
<path d="M5.51872 14.5622C4.73068 14.5622 4.08944 13.921 4.08944 13.1329C4.08944 12.3448 4.73061 11.7036 5.51872 11.7036C6.30683 11.7036 6.948 12.3448 6.948 13.1329C6.948 13.921 6.30675 14.5622 5.51872 14.5622ZM5.51872 12.7926C5.33106 12.7926 5.17839 12.9453 5.17839 13.133C5.17839 13.3206 5.33106 13.4733 5.51872 13.4733C5.70638 13.4733 5.85905 13.3206 5.85905 13.133C5.85905 12.9453 5.70638 12.7926 5.51872 12.7926Z" fill="#009380"/>
<path d="M5.51872 16.4221C6.30675 16.4221 6.948 17.0633 6.948 17.8514C6.948 18.6395 6.30683 19.2807 5.51872 19.2807C4.73061 19.2807 4.08944 18.6395 4.08944 17.8514C4.08944 17.0633 4.73061 16.4221 5.51872 16.4221ZM5.51872 18.1917C5.70638 18.1917 5.85905 18.039 5.85905 17.8513C5.85905 17.6637 5.70638 17.511 5.51872 17.511C5.33106 17.511 5.17839 17.6637 5.17839 17.8513C5.17839 18.039 5.33106 18.1917 5.51872 18.1917Z" fill="#009380"/>
</g>
<defs>
<clipPath id="clip0_0_133">
<rect width="21" height="21" fill="white" transform="matrix(-1 0 0 1 21 0)"/>
</clipPath>
</defs>
</svg>
