<svg width="36" height="36" viewBox="0 0 36 36" fill="none" xmlns="http://www.w3.org/2000/svg">
<g clip-path="url(#clip0_0_163)">
<path d="M33.1306 9.71882e-05H20.9404C20.5631 -0.00303875 20.1891 0.0697448 19.8406 0.214117C19.492 0.358489 19.1761 0.571499 18.9115 0.840472L1.16648 18.5855C0.418253 19.3355 -0.00195312 20.3516 -0.00195312 21.4109C-0.00195313 22.4703 0.418253 23.4864 1.16648 24.2363L11.7637 34.8335C12.1341 35.2051 12.5746 35.4996 13.0595 35.6998C13.5445 35.9001 14.0644 36.0021 14.5891 36.0001C15.1137 36.0021 15.6336 35.9 16.1186 35.6998C16.6036 35.4996 17.044 35.2051 17.4144 34.8335L35.1595 17.0885C35.4285 16.824 35.6415 16.508 35.7859 16.1595C35.9303 15.8109 36.0031 15.4369 35.9999 15.0596V2.86941C35.9991 2.10868 35.6965 1.37936 35.1586 0.841445C34.6207 0.30353 33.8913 0.000953255 33.1306 9.71882e-05ZM34.3124 15.0596C34.3163 15.2154 34.2875 15.3702 34.2279 15.5141C34.1683 15.658 34.0792 15.7879 33.9663 15.8952L16.221 33.6403C15.787 34.0709 15.2003 34.3126 14.5888 34.3126C13.9774 34.3126 13.3907 34.0709 12.9566 33.6403L2.35968 23.0431C1.92742 22.6099 1.68466 22.0229 1.68466 21.411C1.68466 20.799 1.92742 20.212 2.35968 19.7788L20.1048 2.03375C20.2122 1.92085 20.342 1.83172 20.4859 1.7721C20.6298 1.71248 20.7847 1.68369 20.9404 1.6876H33.1306C33.4439 1.68795 33.7443 1.81258 33.9659 2.03413C34.1874 2.25569 34.3121 2.55608 34.3124 2.86941V15.0596ZM23.8015 13.0635C24.8571 14.3046 25.5143 15.8875 25.2192 17.3877C25.1978 17.4964 25.1552 17.5998 25.0938 17.6921C25.0325 17.7844 24.9535 17.8636 24.8615 17.9254C24.7695 17.9871 24.6663 18.0302 24.5576 18.052C24.449 18.0738 24.3371 18.0741 24.2284 18.0527C24.1197 18.0313 24.0163 17.9887 23.924 17.9273C23.8317 17.866 23.7525 17.787 23.6907 17.695C23.566 17.5092 23.5202 17.2815 23.5634 17.0619C23.8345 15.6838 22.6178 13.7489 20.9065 12.8366C20.2189 12.4701 18.9189 12.0014 17.9383 12.982C17.5086 13.4137 17.2674 13.9981 17.2675 14.6073C17.2677 15.2165 17.5092 15.8008 17.9392 16.2323L19.8764 18.175C19.8812 18.1798 19.8852 18.1851 19.8899 18.1899C19.8945 18.1948 19.8998 18.1994 19.9046 18.2046C20.5919 18.9624 20.9612 19.9557 20.9358 20.9784C20.9104 22.0011 20.4924 22.9749 19.7684 23.6977C19.4283 24.0428 19.0222 24.3159 18.5744 24.5009C18.1266 24.6859 17.6462 24.7789 17.1617 24.7744C16.4093 24.7744 15.6106 24.5639 14.8132 24.1388C14.3717 23.9005 13.9571 23.6154 13.5766 23.2884L12.476 24.389C12.3172 24.5444 12.1035 24.6309 11.8814 24.6297C11.6593 24.6285 11.4466 24.5398 11.2894 24.3827C11.1323 24.2257 11.0435 24.013 11.0422 23.7909C11.0409 23.5687 11.1272 23.3551 11.2825 23.1962L12.4206 22.0582C11.5395 20.88 11.0274 19.4558 11.2943 18.099C11.3375 17.8795 11.4661 17.686 11.6519 17.5613C11.8378 17.4366 12.0655 17.3908 12.2851 17.434C12.5046 17.4772 12.6981 17.6059 12.8228 17.7917C12.9475 17.9775 12.9933 18.2052 12.9501 18.4248C12.679 19.8029 13.8956 21.7377 15.607 22.6501C16.2946 23.0168 17.5946 23.4855 18.5752 22.5048C18.9909 22.0898 19.2317 21.5313 19.248 20.9441C19.2643 20.357 19.055 19.7859 18.663 19.3485L16.7443 17.4244C15.9991 16.6759 15.5809 15.6627 15.581 14.6066C15.5812 13.5504 15.9998 12.5374 16.7451 11.7891C18.0043 10.5299 19.8567 10.365 21.7004 11.348C22.0049 11.5116 22.2963 11.6983 22.5723 11.9064L23.7068 10.7718C23.8652 10.6143 24.0796 10.526 24.303 10.5263C24.5264 10.5267 24.7405 10.6155 24.8985 10.7735C25.0564 10.9314 25.1453 11.1456 25.1456 11.369C25.1459 11.5923 25.0576 11.8067 24.9 11.9651L23.8015 13.0635Z" fill="#009380"/>
</g>
<defs>
<clipPath id="clip0_0_163">
<rect width="36" height="36" fill="white"/>
</clipPath>
</defs>
</svg>
