<svg width="38" height="38" viewBox="0 0 38 38" fill="none" xmlns="http://www.w3.org/2000/svg">
<g clip-path="url(#clip0_0_165)">
<path d="M37.8561 1.61843C37.7278 1.45353 37.5304 1.35718 37.3214 1.35718H0.678511C0.469511 1.35718 0.272047 1.45353 0.143797 1.61843C0.0155468 1.78332 -0.0305961 1.99775 0.0202968 2.20064L1.37744 7.62921C1.45276 7.93118 1.72419 8.14289 2.03565 8.14289H3.3928V35.2857H2.03565V36.6429H4.07137H6.78565H31.2142H33.9285H35.9927V35.2857H34.6071V8.14289H35.9642C36.2757 8.14289 36.5471 7.9305 36.6224 7.62921L37.9796 2.20064C38.0305 1.99775 37.985 1.78264 37.8561 1.61843ZM7.46423 35.2857V27.8215H18.3214V29.275C17.1542 29.5783 16.2857 30.6321 16.2857 31.8929C16.2857 33.3898 17.503 34.6072 18.9999 34.6072C20.4969 34.6072 21.7142 33.3898 21.7142 31.8929C21.7142 30.6321 20.8457 29.5783 19.6785 29.275V27.8215H30.5357V35.2857H7.46423ZM30.5357 15.6072H7.46423V12.8929H30.5357V15.6072ZM30.5357 16.9643V19H7.46423V16.9643H30.5357ZM30.5357 20.3572V22.3929H7.46423V20.3572H30.5357ZM30.5357 23.75V26.4643H19.6785H18.3214H7.46423V23.75H30.5357ZM18.9999 30.5357C19.7484 30.5357 20.3571 31.1444 20.3571 31.8929C20.3571 32.6414 19.7484 33.25 18.9999 33.25C18.2515 33.25 17.6428 32.6414 17.6428 31.8929C17.6428 31.1444 18.2515 30.5357 18.9999 30.5357ZM33.2499 35.2857H31.8928V27.1429V12.2143C31.8928 11.8397 31.5888 11.5357 31.2142 11.5357H6.78565C6.41108 11.5357 6.10708 11.8397 6.10708 12.2143V27.1429V35.2857H4.74994V8.14289H33.2499V35.2857ZM35.4343 6.78575H33.9285H4.07137H2.56562L1.54776 2.71432H36.4521L35.4343 6.78575Z" fill="#009380"/>
</g>
<defs>
<clipPath id="clip0_0_165">
<rect width="38" height="38" fill="white"/>
</clipPath>
</defs>
</svg>
