<svg width="58" height="58" viewBox="0 0 58 58" fill="none" xmlns="http://www.w3.org/2000/svg">
<g clip-path="url(#clip0_0_170)">
<path d="M53.8138 42.3951L38.6102 33.6133L45.1347 31.8663C45.5656 31.7528 45.8223 31.3078 45.7072 30.8754C45.5952 30.446 45.1518 30.1862 44.7178 30.3029L36.6283 32.4699L30.6203 29.0008L36.633 25.5285L44.7178 27.6925C44.7862 27.7127 44.8578 27.722 44.9278 27.722C45.2856 27.722 45.6123 27.484 45.7072 27.12C45.8223 26.6875 45.5656 26.2441 45.1347 26.129L38.6149 24.382L53.8153 15.6049C54.2027 15.3825 54.3365 14.8862 54.114 14.4988C53.8869 14.1099 53.3922 13.9792 53.0048 14.2033L37.8028 22.9819L39.5514 16.4574C39.6665 16.0265 39.4099 15.5816 38.9789 15.4665C38.5465 15.3529 38.1031 15.6065 37.9849 16.0405L35.8163 24.13L29.8083 27.5976V20.6593L35.726 14.7415C36.0418 14.4242 36.0418 13.9108 35.726 13.5965C35.4133 13.2792 34.8969 13.2792 34.5811 13.5965L29.8083 18.3678V0.810503C29.8083 0.362471 29.4458 0 28.9993 0C28.5513 0 28.1888 0.362471 28.1888 0.810503V18.3678L23.416 13.5965C23.0987 13.2792 22.5853 13.2792 22.2695 13.5965C21.9521 13.9123 21.9521 14.4257 22.2695 14.7415L28.1888 20.6593V27.5976L22.1793 24.13L20.0107 16.0405C19.8955 15.608 19.4506 15.3545 19.0181 15.4665C18.5857 15.5816 18.3305 16.0281 18.4441 16.4574L20.1927 22.9819L4.99068 14.2017C4.60177 13.9777 4.10862 14.1099 3.8846 14.4973C3.66059 14.8862 3.79282 15.3809 4.18174 15.6034L19.3822 24.3804L12.8639 26.1275C12.4314 26.2426 12.1763 26.6875 12.2899 27.1184C12.3863 27.4809 12.7146 27.7205 13.0708 27.7205C13.1393 27.7205 13.2093 27.7111 13.2808 27.6909L21.3657 25.527L27.3768 28.9992L21.3703 32.4668L13.2808 30.2998C12.853 30.1846 12.405 30.4413 12.2899 30.8738C12.1748 31.3047 12.4299 31.7496 12.8639 31.8632L19.3868 33.6102L4.18329 42.392C3.79437 42.6129 3.66214 43.1076 3.88616 43.4981C4.03706 43.7594 4.3093 43.9025 4.58932 43.9025C4.72622 43.9025 4.86623 43.8683 4.99379 43.7952L20.1958 35.0181L18.4488 41.5364C18.3337 41.9704 18.5888 42.4122 19.0228 42.5304C19.0928 42.5507 19.1644 42.5584 19.2328 42.5584C19.5906 42.5584 19.9173 42.322 20.0138 41.9564L22.1777 33.8731L28.1888 30.4055V37.3407L22.2695 43.2585C21.9521 43.5758 21.9521 44.0892 22.2695 44.4035C22.5853 44.7208 23.0987 44.7208 23.416 44.4035L28.1888 39.6338V57.1926C28.1888 57.6375 28.5513 58.0031 28.9993 58.0031C29.4458 58.0031 29.8098 57.6391 29.8098 57.1926V39.6322L34.5826 44.4035C34.7444 44.5652 34.9498 44.6415 35.1567 44.6415C35.362 44.6415 35.572 44.5621 35.7291 44.4035C36.0449 44.0908 36.0449 43.5758 35.7291 43.2585L29.8114 37.3392V30.4055L35.8225 33.8731L37.9864 41.9564C38.0829 42.3173 38.4111 42.5584 38.7658 42.5584C38.8358 42.5584 38.9058 42.5491 38.9805 42.5289C39.4114 42.4122 39.6681 41.9657 39.553 41.5348L37.8075 35.0181L53.008 43.7952C53.1355 43.8683 53.2755 43.9056 53.414 43.9056C53.694 43.9056 53.9678 43.7578 54.1187 43.5012C54.3381 43.1122 54.2043 42.6144 53.8138 42.3951Z" fill="#009380"/>
</g>
<defs>
<clipPath id="clip0_0_170">
<rect width="58" height="58" fill="white"/>
</clipPath>
</defs>
</svg>
