<svg width="60" height="60" viewBox="0 0 60 60" fill="none" xmlns="http://www.w3.org/2000/svg">
<g clip-path="url(#clip0_0_429)">
<path d="M46.4 19.4419C46.8318 19.7663 47.4432 19.6893 47.781 19.2679L55.781 9.26789C56.0043 8.98887 56.0618 8.61191 55.9318 8.27902C55.8018 7.94614 55.5041 7.70789 55.1508 7.65402C54.7975 7.60016 54.4423 7.73887 54.219 8.01789L46.819 17.2609L43.6 14.8429C43.3142 14.6285 42.9357 14.5829 42.6072 14.7233C42.2787 14.8636 42.0499 15.1686 42.0072 15.5233C41.9645 15.878 42.1142 16.2285 42.4 16.4429L46.4 19.4419Z" fill="#009380"/>
<path d="M56.66 50.2669C56.396 50.1429 56.146 50.0259 55.93 49.9099C54.51 49.1499 53.089 48.3909 51.688 47.5949C50.0262 46.5762 48.2048 45.8446 46.3 45.4309C44.3727 44.916 42.5871 43.9714 41.077 42.6679V39.7149C44.317 36.4509 44.304 33.4309 44.177 30.5099C45.5048 29.6318 46.5474 28.3851 47.177 26.9229L48.424 27.8129C48.7716 28.0611 49.2384 28.0611 49.586 27.8129L57.399 22.2339C59.0243 21.0743 59.9922 19.2035 60 17.2069V5.33494C60.0006 4.93678 59.7649 4.5762 59.4 4.41694L49.4 0.0819373C49.1467 -0.0276379 48.8593 -0.0276379 48.606 0.0819373L40.676 3.51794C37.852 1.45388 34.5001 0.233919 31.01 -6.27507e-05H28.946C26.614 0.171249 24.3315 0.759215 22.207 1.73594C18.0235 3.48917 15.2035 7.47164 14.939 11.9999H14C12.3431 11.9999 11 13.3431 11 14.9999V16.9999C11.002 17.9807 11.4834 18.8986 12.289 19.4579C11.9069 21.1695 11.8563 22.9384 12.14 24.6689C12.5341 27.0361 13.8611 29.1463 15.824 30.5269C15.697 33.4429 15.691 36.4559 18.924 39.7139V42.6679C17.4136 43.9716 15.6276 44.9162 13.7 45.4309C11.7948 45.8458 9.97325 46.5791 8.31199 47.5999C6.91199 48.3999 5.48999 49.1539 4.06999 49.9139C3.85399 50.0299 3.60399 50.1469 3.33999 50.2709C2.16666 50.6866 1.13983 51.4351 0.384993 52.4249C0.0394219 53.0943 -0.0981343 53.8518 -0.010007 54.5999C-0.00500698 54.7399 0.00099301 54.8799 -6.98864e-06 55.0179C-6.98864e-06 55.4179 -6.98864e-06 55.8239 -6.98864e-06 56.2279V58.9999C-6.98864e-06 59.5522 0.447708 59.9999 0.999993 59.9999H59C59.5523 59.9999 60 59.5522 60 58.9999V56.2279C60 55.8279 60 55.4209 60 55.0189C60 54.8799 60.005 54.7399 60.01 54.5999C60.0981 53.8514 59.9605 53.0937 59.615 52.4239C58.8604 51.4332 57.8336 50.6837 56.66 50.2669ZM57.891 53.4369C57.9805 53.6171 58.0234 53.8169 58.016 54.0179L43.707 53.9999C43.999 53.0212 44.1955 52.0165 44.294 50.9999H53.752C54.165 51.2219 54.573 51.4529 54.986 51.6739C55.231 51.8049 55.514 51.9379 55.811 52.0739C56.6039 52.3544 57.3174 52.8219 57.891 53.4369ZM50.087 48.9999H44.4C44.4 48.2229 44.366 47.5199 44.315 46.9289C44.8418 47.1361 45.3868 47.2934 45.943 47.3989C47.4 47.7112 48.7985 48.2515 50.087 48.9999ZM23 13.9999V17.9999H21V13.9999H23ZM27 13.9999V17.9999H25V13.9999H27ZM31 13.9999V17.9999H29V13.9999H31ZM35 13.9999V17.9999H33V13.9999H35ZM38 13.9999V17.2069C38.0012 17.4722 38.0196 17.7371 38.055 17.9999H37V13.9999H38ZM19 17.9999H17V13.9999H19V17.9999ZM17.621 25.4219C17.578 25.1699 17.532 24.9139 17.484 24.6469C17.349 23.8899 17.194 23.0299 17.063 21.9529C16.985 21.2899 16.928 20.6529 16.888 19.9999H38.68C39.1346 20.8876 39.7954 21.6533 40.607 22.2329L42.681 23.7139C42.634 23.9879 42.587 24.2529 42.541 24.5039C42.484 24.8199 42.43 25.1229 42.38 25.4219C41.706 26.6389 40.5555 27.52 39.205 27.8536C37.8545 28.1872 36.4261 27.9431 35.263 27.1799C34.7192 26.8527 34.258 26.4048 33.915 25.8709C33.831 25.7329 33.753 25.5919 33.674 25.4509C33.3839 24.8581 32.9873 24.3235 32.504 23.8739C31.097 22.6721 29.0391 22.6245 27.578 23.7599C27.1039 24.1515 26.7273 24.6479 26.478 25.2099C26.39 25.39 26.2918 25.565 26.184 25.7339C25.2642 27.1503 23.6888 28.0036 22 27.9999C20.1828 27.9911 18.5105 27.0066 17.621 25.4219ZM44.11 27.9899C44.1329 27.2944 44.2051 26.6013 44.326 25.9159V25.9059C44.373 25.6119 44.426 25.3109 44.484 25.0059L45.501 25.7329C45.1858 26.5672 44.7136 27.3334 44.11 27.9899ZM49 2.08994L58 5.98994V17.2069C57.9917 18.5591 57.3329 19.8246 56.23 20.6069L49 25.7709L44.3 22.4169L44.286 22.4069L41.766 20.6069C40.6623 19.8253 40.0033 18.5594 39.996 17.2069V5.99094L49 2.08994ZM28.99 1.99994H30.964C33.6504 2.21398 36.2497 3.05223 38.555 4.44794C38.2177 4.61551 38.0032 4.95835 38 5.33494V11.9999H16.933C17.771 2.63494 28.567 2.02094 28.99 1.99994ZM13 14.9999C13 14.4477 13.4477 13.9999 14 13.9999H15V17.9999H14C13.4477 17.9999 13 17.5522 13 16.9999V14.9999ZM14.124 24.4239C13.9173 22.9544 13.9429 21.4615 14.2 19.9999H14.256C14.5202 20.1552 14.7496 20.3632 14.93 20.6109C14.969 21.1369 15.02 21.6609 15.082 22.1899C15.221 23.3279 15.382 24.2169 15.521 25.0009C15.574 25.3009 15.621 25.5789 15.671 25.8569C15.671 25.8669 15.678 25.8759 15.68 25.8859C15.682 25.8959 15.68 25.9059 15.68 25.9159C15.7992 26.6048 15.8694 27.3012 15.89 27.9999C14.9922 26.9873 14.3823 25.7524 14.124 24.4239ZM17.836 30.2999L17.847 30.0509V30.0289C17.873 29.5739 17.885 29.1119 17.89 28.6449C19.4326 29.7827 21.3763 30.2335 23.2623 29.8909C25.1482 29.5482 26.8092 28.4426 27.853 26.8349C27.999 26.607 28.1325 26.3713 28.253 26.1289C28.3717 25.8336 28.5548 25.5685 28.789 25.3529C29.1391 25.0913 29.5629 24.9467 30 24.9399C30.4452 24.9515 30.8734 25.1133 31.215 25.3989C31.5101 25.6977 31.7525 26.0443 31.932 26.4239C32.023 26.5859 32.113 26.7489 32.206 26.9019C32.7033 27.6952 33.3767 28.3631 34.174 28.8539C36.6028 30.4545 39.7718 30.3719 42.114 28.6469C42.114 29.1119 42.131 29.5709 42.156 30.0139L42.169 30.2969C42.306 33.3189 42.413 35.7069 39.397 38.5749L39.384 38.5879L39.367 38.6049C38.0538 39.9018 36.904 41.3542 35.943 42.9299C34.577 45.0299 33.894 45.9599 32.025 45.9599H27.98C26.111 45.9599 25.428 45.0309 24.062 42.9299C23.1008 41.3523 21.9503 39.8982 20.636 38.5999L20.624 38.5879L20.609 38.5729C17.592 35.7069 17.7 33.3189 17.836 30.2999ZM14.057 47.3999C14.6134 47.2941 15.1587 47.1367 15.686 46.9299C15.635 47.5209 15.598 48.2239 15.601 49.0009H9.91399C11.2022 48.2526 12.6004 47.7123 14.057 47.3999ZM4.18899 52.0769C4.48899 51.9379 4.76899 51.8049 5.01399 51.6769C5.42699 51.4559 5.83599 51.2249 6.24899 51.0029H15.706C15.8045 52.0195 16.001 53.0242 16.293 54.0029L1.98399 54.0189C1.97645 53.8182 2.01943 53.6188 2.10899 53.4389C2.68246 52.824 3.39605 52.3567 4.18899 52.0769ZM1.99999 56.2239V56.0179L17.1 55.9999C17.4731 56.7243 17.9394 57.3967 18.487 57.9999H1.99999V56.2239ZM38 57.9999H21.681C16.753 55.3139 17.569 47.6249 17.824 45.8789C18.224 45.6429 18.594 45.4029 18.924 45.1789V46.9669C18.924 47.5192 19.3717 47.9669 19.924 47.9669C20.4763 47.9669 20.924 47.5192 20.924 46.9669V41.9199C21.485 42.6489 21.955 43.3589 22.385 44.0199C23.76 46.1339 24.947 47.9589 27.98 47.9589H32.02C35.053 47.9589 36.24 46.1339 37.615 44.0199C38.045 43.3579 38.515 42.6479 39.076 41.9199V46.9619C39.076 47.5142 39.5237 47.9619 40.076 47.9619C40.6283 47.9619 41.076 47.5142 41.076 46.9619V45.1739C41.406 45.4029 41.776 45.6429 42.176 45.8799C42.431 47.6259 43.247 55.3139 38.319 57.9999H38ZM58 57.9999H41.514C42.0613 57.3966 42.5272 56.7242 42.9 55.9999L58 56.0169V57.9999Z" fill="#009380"/>
</g>
<defs>
<clipPath id="clip0_0_429">
<rect width="60" height="60" fill="white"/>
</clipPath>
</defs>
</svg>
