<svg width="58" height="58" viewBox="0 0 58 58" fill="none" xmlns="http://www.w3.org/2000/svg">
<g clip-path="url(#clip0_0_438)">
<path d="M56.55 42.5561H40.6V10.1727C40.6 9.37225 39.9509 8.72266 39.1504 8.72266H35.2834C34.4829 8.72266 33.8337 9.37225 33.8337 10.1727V47.3896C33.8337 48.4574 34.6993 49.3229 35.767 49.3229H56.55C57.3509 49.3229 58.0001 48.6738 58.0001 47.8728V44.0062C58.0001 43.2053 57.3509 42.5561 56.55 42.5561ZM56.0668 47.3896H35.767V10.6564H38.6667V42.5561C38.6667 43.6239 39.5323 44.4894 40.6 44.4894H56.0668V47.3896Z" fill="#009380"/>
<path d="M30.7866 9.71394C12.725 13.7691 -0.0827875 29.8448 0.000402902 48.3561C0.000402902 48.8902 0.43317 49.323 0.966827 49.323H31.0012C31.5349 49.323 31.9676 48.8902 31.9676 48.3561V10.6565C31.9676 10.3618 31.8335 10.0839 31.6034 9.90024C31.3747 9.71527 31.0729 9.64624 30.7866 9.71394ZM30.0343 47.3897H1.94608C2.29787 30.5993 13.7755 16.0922 30.0343 11.888V47.3897Z" fill="#009380"/>
<path d="M7.55176 34.7358C7.67699 34.7937 7.81328 34.8234 7.95134 34.8229C8.33056 34.8229 8.67527 34.6012 8.83192 34.2556C12.2702 26.6746 18.4059 20.6446 26.0452 17.3387C26.3616 17.2006 26.5807 16.9041 26.6196 16.5608C26.6581 16.2174 26.5107 15.8793 26.2329 15.6744C25.955 15.4691 25.5886 15.4279 25.2717 15.566C17.1943 19.06 10.7055 25.4347 7.06855 33.4494C6.96058 33.6839 6.95084 33.9516 7.042 34.1932C7.13271 34.4353 7.31635 34.6304 7.55176 34.7358Z" fill="#009380"/>
<path d="M6.7574 36.8006C6.5127 36.7236 6.24764 36.7466 6.01975 36.8652C5.79231 36.9833 5.62106 37.1873 5.54406 37.432C5.33786 38.0869 5.14935 38.7485 4.97854 39.4175C4.89137 39.753 4.99005 40.1096 5.23785 40.3521C5.48521 40.5946 5.84364 40.6858 6.17728 40.5915C6.51093 40.4973 6.76847 40.2313 6.8521 39.895C7.01317 39.2618 7.19238 38.6343 7.3893 38.0139C7.46673 37.7692 7.44328 37.5037 7.32469 37.2763C7.20654 37.0488 7.00211 36.8776 6.7574 36.8006Z" fill="#009380"/>
</g>
<defs>
<clipPath id="clip0_0_438">
<rect width="58" height="58" fill="white"/>
</clipPath>
</defs>
</svg>
