<svg width="59" height="59" viewBox="0 0 59 59" fill="none" xmlns="http://www.w3.org/2000/svg">
<g clip-path="url(#clip0_0_443)">
<path d="M55.5663 7.85135C41.1777 7.85135 34.7439 0.409234 34.6819 0.336384C34.308 -0.112128 33.5447 -0.112128 33.171 0.336384C33.1081 0.411078 26.7411 7.85135 12.2866 7.85135C11.7437 7.85135 11.303 8.29202 11.303 8.83494V27.5244C11.303 26.9805 10.8623 26.5408 10.3194 26.5408H3.43391C2.89099 26.5408 2.45032 26.9805 2.45032 27.5244V47.1971C2.45032 47.74 2.89099 48.1806 3.43391 48.1806H10.3193C10.8622 48.1806 11.3029 47.74 11.3029 47.1971V46.2129H16.8015C18.6947 49.0963 20.9933 51.6123 23.6435 53.6944C26.7586 56.1426 30.1236 57.9142 33.646 58.9588C33.7385 58.9863 33.832 59 33.9264 59C34.0208 59 34.1143 58.9862 34.2067 58.9588C37.7291 57.9142 41.094 56.1426 44.2092 53.6944C51.9366 47.6225 56.5498 37.8698 56.5498 27.6075V8.83494C56.5499 8.29202 56.1092 7.85135 55.5663 7.85135ZM11.3173 28.5833H11.3029V27.6075C11.303 27.9332 11.3081 28.2585 11.3173 28.5833ZM9.33568 46.2133H4.4175V28.508H9.33568V29.5669V45.2293V46.2133ZM11.303 30.5467H11.3433C11.4958 30.5595 12.8463 30.6509 14.2018 29.4184C15.9841 27.7974 16.8881 24.7245 16.8881 20.2874C16.8881 19.0884 17.1094 17.6876 17.733 17.6876H17.8658C18.7904 17.6876 20.0269 19.2889 20.2295 20.7476C20.4862 22.5989 20.5502 25.4543 20.1755 27.3311C20.1618 27.3951 20.1558 27.459 20.1558 27.524V29.4913C20.1558 30.0342 20.5964 30.4749 21.1393 30.4749H29.0084C29.5504 30.4749 29.992 30.9165 29.992 31.4584C29.992 32.0004 29.5504 32.442 29.0084 32.442H21.1392C20.5963 32.442 20.1556 32.8827 20.1556 33.4256C20.1556 33.9685 20.5963 34.4092 21.1392 34.4092H29.0083C29.5503 34.4092 29.9919 34.8508 29.9919 35.3928C29.9919 35.9348 29.5503 36.3764 29.0083 36.3764H21.1392C20.5963 36.3764 20.1556 36.8171 20.1556 37.36C20.1556 37.9029 20.5963 38.3436 21.1392 38.3436H29.0083C29.5503 38.3436 29.9919 38.7852 29.9919 39.3272C29.9919 39.8692 29.5503 40.3108 29.0083 40.3108H21.1392C20.5963 40.3108 20.1556 40.7514 20.1556 41.2944C20.1556 41.8373 20.5963 42.2779 21.1392 42.2779H29.0083C29.5503 42.2779 29.9919 42.7195 29.9919 43.2615C29.9919 43.8035 29.5503 44.2451 29.0083 44.2451H11.303V30.5467ZM31.2057 41.2947C31.6739 40.7724 31.9591 40.0829 31.9591 39.3274C31.9591 38.5719 31.6738 37.8824 31.2057 37.3601C31.6739 36.8378 31.9591 36.1483 31.9591 35.3928C31.9591 34.6373 31.6738 33.9479 31.2057 33.4255C31.6739 32.9032 31.9591 32.2137 31.9591 31.4582C31.9591 29.8313 30.6351 28.5073 29.0082 28.5073H22.1228V27.6191C22.5389 25.4364 22.4455 22.401 22.1779 20.4769C21.9317 18.7006 20.7273 16.7648 19.1719 16.0284V15.228C25.9579 14.2237 30.8525 11.8394 33.9264 9.8485C37.0003 11.8393 41.8948 14.2237 48.6808 15.228V27.607C48.6808 35.475 45.1919 42.9142 39.3471 47.5077C37.6179 48.8661 35.7963 49.9452 33.9264 50.7202C32.0565 49.9452 30.2348 48.8661 28.5065 47.5077C27.9908 47.1025 27.4891 46.6694 27.003 46.2125H29.0082C30.6351 46.2125 31.9591 44.8886 31.9591 43.2617C31.9592 42.5065 31.6739 41.8171 31.2057 41.2947ZM54.5826 27.6075C54.5826 37.2707 50.2507 46.445 42.9934 52.1481C40.1576 54.377 37.1084 56.0049 33.9264 56.9886C30.7444 56.005 27.695 54.377 24.8593 52.1481C22.7129 50.4614 20.8112 48.4695 19.1874 46.2129H24.2469C25.1923 47.2533 26.2135 48.2082 27.2908 49.0553C29.2796 50.6182 31.3915 51.8439 33.5673 52.6967C33.6824 52.742 33.8044 52.7645 33.9264 52.7645C34.0483 52.7645 34.1703 52.742 34.2854 52.6967C36.4602 51.8439 38.5721 50.6182 40.563 49.0553C46.8779 44.0919 50.6481 36.0734 50.6481 27.6073V14.3715C50.6481 13.8758 50.2803 13.4587 49.7884 13.3958C42.5086 12.4673 37.4448 9.87052 34.4792 7.85504C34.1457 7.62784 33.707 7.62784 33.3737 7.85504C30.408 9.87052 25.3442 12.4673 18.0644 13.3958C17.5726 13.4587 17.2048 13.8758 17.2048 14.3715V15.7732C16.1806 15.9842 14.9208 16.9268 14.9208 20.2874C14.9208 24.4451 14.087 26.5123 13.2703 27.5396V9.80781C25.3119 9.54027 31.8264 4.40077 33.9265 2.38529C36.0266 4.40077 42.5411 9.54016 54.5827 9.80781L54.5826 27.6075Z" fill="#009380"/>
</g>
<defs>
<clipPath id="clip0_0_443">
<rect width="59" height="59" fill="white"/>
</clipPath>
</defs>
</svg>
