<svg width="21" height="21" viewBox="0 0 21 21" fill="none" xmlns="http://www.w3.org/2000/svg">
<g clip-path="url(#clip0_0_473)">
<path d="M10.5003 2.9751C6.35068 2.9751 2.9751 6.35072 2.9751 10.5001C2.9751 14.6494 6.35068 18.0251 10.5003 18.0251C14.6495 18.0251 18.0251 14.6494 18.0251 10.5001C18.0251 6.35072 14.6495 2.9751 10.5003 2.9751ZM11.9001 15.5686C11.9001 15.8137 11.7013 16.0126 11.4558 16.0126H9.54442C9.29894 16.0126 9.10005 15.8136 9.10005 15.5686V9.8503C9.10005 9.60525 9.2989 9.40632 9.54442 9.40632H11.4558C11.7013 9.40632 11.9001 9.60525 11.9001 9.8503V15.5686ZM10.5003 7.7001C9.55819 7.7001 8.79384 6.93621 8.79384 5.99379C8.79384 5.05151 9.55815 4.28758 10.5003 4.28758C11.442 4.28758 12.2063 5.05151 12.2063 5.99379C12.2063 6.93621 11.442 7.7001 10.5003 7.7001Z" fill="#939393"/>
<path d="M10.5004 0C4.70153 0 0.000244141 4.70111 0.000244141 10.5C0.000244141 16.2989 4.70153 21 10.5004 21C16.2992 21 21.0002 16.2989 21.0002 10.5C21.0002 4.70111 16.2993 0 10.5004 0ZM10.5004 19.425C5.57891 19.425 1.57546 15.4212 1.57546 10.5001C1.57546 5.57879 5.57891 1.575 10.5004 1.575C15.4215 1.575 19.4253 5.57879 19.4253 10.5001C19.4253 15.4212 15.4215 19.425 10.5004 19.425Z" fill="#939393"/>
</g>
<defs>
<clipPath id="clip0_0_473">
<rect width="21" height="21" fill="white"/>
</clipPath>
</defs>
</svg>
