<svg width="61" height="61" viewBox="0 0 61 61" fill="none" xmlns="http://www.w3.org/2000/svg">
<g clip-path="url(#clip0_0_447)">
<path d="M18.7653 12.706H22.3936C22.601 11.1062 23.2228 9.60476 24.2069 8.32805L21.6417 5.76283C21.1746 5.2958 21.1746 4.53842 21.6417 4.07139C22.1087 3.60436 22.8658 3.60436 23.3332 4.07139L25.8984 6.63661C27.1753 5.65251 28.6761 5.03059 30.2752 4.82329V1.19605C30.2753 0.535537 30.8109 0 31.4714 0C32.1319 0 32.6674 0.535537 32.6674 1.19605V4.82305C34.2672 5.03047 35.7687 5.65227 37.0455 6.63637L39.6106 4.07127C40.0776 3.60424 40.8348 3.60424 41.3021 4.07127C41.7692 4.53831 41.7692 5.29568 41.3021 5.76271L38.7369 8.32793C39.7211 9.605 40.3431 11.1062 40.5504 12.7059H44.1774C44.8379 12.7059 45.3734 13.2414 45.3734 13.9019C45.3734 14.5626 44.8378 15.098 44.1774 15.098H40.5502C40.3427 16.6965 39.7207 18.1975 38.7362 19.4748L41.3019 22.0396C41.7689 22.5065 41.7691 23.2639 41.3021 23.731C41.0685 23.9648 40.7623 24.0814 40.4562 24.0814C40.1502 24.0814 39.8442 23.9647 39.6106 23.7313L37.0452 21.1668C35.7681 22.1505 34.2668 22.7722 32.6674 22.9794V26.6076C32.6674 27.2682 32.1318 27.8036 31.4714 27.8036C30.8109 27.8036 30.2753 27.2681 30.2753 26.6076V22.9794C28.6766 22.7719 27.1756 22.1505 25.8987 21.1668L23.3332 23.7313C23.0997 23.9648 22.7936 24.0814 22.4877 24.0814C22.1815 24.0814 21.8753 23.9645 21.6418 23.731C21.1749 23.2639 21.175 22.5065 21.6421 22.0396L24.2078 19.4748C23.2235 18.1975 22.6014 16.6966 22.3938 15.098H18.765C18.1045 15.098 17.569 14.5624 17.569 13.9019C17.5692 13.2414 18.1049 12.706 18.7653 12.706ZM26.6882 18.6851C26.6907 18.6874 26.6926 18.6902 26.6951 18.6927C27.9717 19.9659 29.6673 20.6672 31.4714 20.6672C33.2756 20.6672 34.9715 19.9663 36.2481 18.6935C36.2507 18.6908 36.253 18.6878 36.2556 18.6852C37.5338 17.407 38.2376 15.7083 38.2376 13.9022C38.2376 12.0944 37.5341 10.3959 36.2558 9.11831L36.2556 9.11807C36.2556 9.11807 36.2552 9.11771 36.2551 9.11748C34.9782 7.83957 33.2793 7.13581 31.4712 7.13581C29.664 7.13581 27.9654 7.83957 26.688 9.11819C25.41 10.3949 24.7063 12.0938 24.7063 13.902C24.7063 15.7083 25.4101 17.407 26.6882 18.6851Z" fill="#009380"/>
<path d="M0.615391 50.5216C0.839615 50.2977 1.14354 50.1719 1.46045 50.1719C1.46117 50.1719 1.46188 50.1719 1.46248 50.1719C3.5615 50.1755 5.65802 50.2679 7.69413 50.4467C13.2261 50.9337 18.9451 50.6345 24.6934 49.5571C26.7861 49.1659 28.6688 48.9758 30.4499 48.9758C32.2366 48.9758 34.1189 49.166 36.2045 49.5572C41.9718 50.6377 47.6737 50.9387 53.1515 50.4517C55.2304 50.2661 57.3797 50.172 59.5396 50.172C60.2001 50.172 60.7357 50.7075 60.7357 51.3681V59.8039C60.7357 60.4646 60.2 61 59.5396 61H1.46045C0.799938 61 0.2644 60.4644 0.2644 59.8039V51.3679C0.2644 51.0505 0.390694 50.746 0.615391 50.5216ZM2.65651 58.608H58.3436V52.5741C56.6588 52.6021 54.9888 52.6894 53.3638 52.8346C47.6681 53.3411 41.7464 53.0295 35.7637 51.9086C33.8249 51.5449 32.0867 51.3681 30.4499 51.3681C28.818 51.3681 27.0789 51.545 25.1336 51.9086C19.1715 53.0261 13.2333 53.336 7.48457 52.8298C5.9038 52.6909 4.2848 52.606 2.65663 52.5761V58.608H2.65651Z" fill="#009380"/>
<path d="M38.488 38.6389C38.9198 38.1616 39.1578 37.8988 39.1578 37.2776C39.1578 36.6565 38.9199 36.3936 38.488 35.9163C38.1809 35.5769 37.8327 35.192 37.5699 34.6479C37.2829 34.0529 37.5323 33.338 38.127 33.0508C38.7218 32.7637 39.437 33.0131 39.7242 33.6079C39.8373 33.8422 40.034 34.0595 40.2618 34.3112C40.8054 34.9121 41.5499 35.7348 41.5499 37.2775C41.5499 38.8201 40.8054 39.643 40.2618 40.2437C39.83 40.721 39.592 40.9838 39.592 41.605C39.592 42.2259 39.8299 42.4888 40.2618 42.966C40.5829 43.321 40.9829 43.7629 41.2495 44.3879C41.5087 44.9955 41.2265 45.6982 40.6188 45.9575C40.4657 46.0228 40.3067 46.0537 40.15 46.0537C39.6853 46.0537 39.2432 45.7813 39.0494 45.3267C38.94 45.0707 38.7406 44.8502 38.4881 44.571C37.9444 43.9703 37.1999 43.1475 37.1999 41.605C37.1999 40.0625 37.9444 39.2397 38.488 38.6389Z" fill="#009380"/>
<path d="M30.5844 38.6389C31.0162 38.1616 31.2543 37.8988 31.2543 37.2776C31.2543 36.6565 31.0163 36.3936 30.5844 35.9163C30.2773 35.5769 29.9292 35.192 29.6663 34.6479C29.3793 34.0529 29.6287 33.338 30.2235 33.0508C30.8183 32.7637 31.5334 33.0131 31.8207 33.6079C31.9337 33.8422 32.1304 34.0595 32.3582 34.3112C32.9019 34.9121 33.6464 35.7348 33.6464 37.2775C33.6464 38.8201 32.9019 39.643 32.3582 40.2437C31.9264 40.721 31.6884 40.9838 31.6884 41.605C31.6884 42.2259 31.9263 42.4888 32.3582 42.966C32.6793 43.321 33.0793 43.7629 33.3459 44.3879C33.6051 44.9955 33.3229 45.6982 32.7153 45.9575C32.5622 46.0228 32.4031 46.0537 32.2465 46.0537C31.7817 46.0537 31.3397 45.7813 31.1458 45.3267C31.0365 45.0707 30.837 44.8502 30.5846 44.571C30.0408 43.9703 29.2963 43.1475 29.2963 41.605C29.2963 40.0625 30.0408 39.2397 30.5844 38.6389Z" fill="#009380"/>
<path d="M22.6809 38.6389C23.1127 38.1616 23.3508 37.8988 23.3508 37.2776C23.3508 36.6565 23.1128 36.3936 22.6809 35.9163C22.3738 35.5769 22.0257 35.192 21.7628 34.6479C21.4758 34.0529 21.7252 33.338 22.3199 33.0508C22.9147 32.7637 23.6299 33.0131 23.9171 33.6079C24.0302 33.8422 24.2269 34.0595 24.4547 34.3112C24.9983 34.9121 25.7429 35.7348 25.7429 37.2775C25.7429 38.8201 24.9983 39.643 24.4547 40.2437C24.0229 40.721 23.7849 40.9838 23.7849 41.605C23.7849 42.2259 24.0228 42.4888 24.4547 42.966C24.7759 43.321 25.1757 43.7629 25.4424 44.3879C25.7018 44.9955 25.4194 45.6982 24.8118 45.9575C24.6587 46.0228 24.4996 46.0537 24.343 46.0537C23.8782 46.0537 23.4362 45.7813 23.2423 45.3267C23.133 45.0707 22.9335 44.8502 22.6811 44.571C22.1373 43.9703 21.3928 43.1475 21.3928 41.605C21.3927 40.0625 22.1373 39.2397 22.6809 38.6389Z" fill="#009380"/>
<path d="M43.1557 54.6211H53.4023C54.0628 54.6211 54.5983 55.1566 54.5983 55.8171C54.5983 56.4777 54.0627 57.0132 53.4023 57.0132H43.1557C42.4952 57.0132 41.9597 56.4777 41.9597 55.8171C41.9597 55.1566 42.4951 54.6211 43.1557 54.6211Z" fill="#009380"/>
<path d="M39.3748 54.6211C40.914 54.6211 40.9166 57.0132 39.3748 57.0132C37.8355 57.0132 37.833 54.6211 39.3748 54.6211Z" fill="#009380"/>
</g>
<defs>
<clipPath id="clip0_0_447">
<rect width="61" height="61" fill="white" transform="matrix(-1 0 0 1 61 0)"/>
</clipPath>
</defs>
</svg>
