<svg width="75" height="75" viewBox="0 0 75 75" fill="none" xmlns="http://www.w3.org/2000/svg">
<path d="M55.3594 15.2344H51.5625C51.3227 14.6334 51.0488 14.0465 50.7422 13.4766C49.3264 11.003 47.245 8.97623 44.7348 7.62655C42.2245 6.27686 39.386 5.65843 36.5417 5.84154C33.6975 6.02464 30.9617 7.00194 28.6452 8.66235C26.3287 10.3228 24.5245 12.5997 23.4375 15.2344H19.6406C18.472 15.2344 17.3513 15.6986 16.5249 16.525C15.6986 17.3513 15.2344 18.4721 15.2344 19.6407V67.0782C15.2344 68.2468 15.6986 69.3675 16.5249 70.1939C17.3513 71.0202 18.472 71.4844 19.6406 71.4844H55.3594C56.528 71.4844 57.6487 71.0202 58.4751 70.1939C59.3014 69.3675 59.7656 68.2468 59.7656 67.0782V19.6407C59.7656 18.4721 59.3014 17.3513 58.4751 16.525C57.6487 15.6986 56.528 15.2344 55.3594 15.2344ZM37.5 8.20317C39.7615 8.20446 41.9829 8.8007 43.9411 9.93202C45.8994 11.0633 47.5255 12.6899 48.6562 14.6485C49.4321 15.9705 49.9566 17.4247 50.2031 18.9375C50.3247 19.6499 50.3874 20.3711 50.3906 21.0938C50.3906 23.6433 49.6346 26.1356 48.2182 28.2554C46.8017 30.3753 44.7885 32.0275 42.433 33.0032C40.0776 33.9788 37.4857 34.2341 34.9852 33.7367C32.4846 33.2393 30.1877 32.0116 28.385 30.2088C26.5822 28.4061 25.3545 26.1092 24.8571 23.6086C24.3597 21.1081 24.615 18.5162 25.5906 16.1608C26.5663 13.8053 28.2185 11.7921 30.3384 10.3756C32.4582 8.95919 34.9505 8.20317 37.5 8.20317ZM57.4219 67.0782C57.425 67.3499 57.3738 67.6195 57.2713 67.8712C57.1687 68.1228 57.0169 68.3514 56.8248 68.5436C56.6326 68.7357 56.404 68.8875 56.1524 68.9901C55.9007 69.0926 55.6311 69.1438 55.3594 69.1407H38.6719V39.8438C38.6719 39.533 38.5484 39.2349 38.3286 39.0151C38.1089 38.7954 37.8108 38.6719 37.5 38.6719C37.1892 38.6719 36.8911 38.7954 36.6714 39.0151C36.4516 39.2349 36.3281 39.533 36.3281 39.8438V69.1407H19.6406C19.3689 69.1438 19.0993 69.0926 18.8476 68.9901C18.596 68.8875 18.3674 68.7357 18.1752 68.5436C17.9831 68.3514 17.8313 68.1228 17.7287 67.8712C17.6262 67.6195 17.575 67.3499 17.5781 67.0782V19.6407C17.575 19.3689 17.6262 19.0993 17.7287 18.8477C17.8313 18.596 17.9831 18.3674 18.1752 18.1753C18.3674 17.9831 18.596 17.8313 18.8476 17.7288C19.0993 17.6262 19.3689 17.575 19.6406 17.5782H22.6875C22.4146 18.7304 22.2731 19.9097 22.2656 21.0938C22.2663 23.201 22.7041 25.2852 23.5514 27.2146C24.3988 29.144 25.6371 30.8766 27.1883 32.3029C28.7394 33.7292 30.5696 34.8183 32.5631 35.5012C34.5566 36.184 36.6701 36.4459 38.77 36.2702C40.8699 36.0946 42.9105 35.4852 44.7629 34.4806C46.6152 33.476 48.239 32.098 49.5316 30.4338C50.8242 28.7695 51.7575 26.8552 52.2725 24.8119C52.7874 22.7686 52.8729 20.6406 52.5234 18.5625C52.5234 18.211 52.3359 17.9063 52.2656 17.5782H55.3594C55.6311 17.575 55.9007 17.6262 56.1524 17.7288C56.404 17.8313 56.6326 17.9831 56.8248 18.1753C57.0169 18.3674 57.1687 18.596 57.2713 18.8477C57.3738 19.0993 57.425 19.3689 57.4219 19.6407V67.0782Z" fill="#009380"/>
<path d="M37.5 22.2656C37.8108 22.2656 38.1089 22.1422 38.3286 21.9224C38.5484 21.7026 38.6719 21.4046 38.6719 21.0938V11.7188C38.6719 11.4079 38.5484 11.1099 38.3286 10.8901C38.1089 10.6703 37.8108 10.5469 37.5 10.5469C37.1892 10.5469 36.8911 10.6703 36.6714 10.8901C36.4516 11.1099 36.3281 11.4079 36.3281 11.7188V21.0938C36.3281 21.4046 36.4516 21.7026 36.6714 21.9224C36.8911 22.1422 37.1892 22.2656 37.5 22.2656Z" fill="#009380"/>
</svg>
